<?xml version="1.0" encoding="UTF-8"?>
<svg xmlns="http://www.w3.org/2000/svg" xmlns:xlink="http://www.w3.org/1999/xlink" width="64" height="64" viewBox="0 0 64 64" version="1.1">
<g id="surface1">
<path style=" stroke:none;fill-rule:nonzero;fill:rgb(69.803922%,69.411765%,100%);fill-opacity:1;" d="M 18.667969 16 C 17.195312 16 16 14.804688 16 13.332031 L 16 8 C 16 6.527344 17.195312 5.332031 18.667969 5.332031 C 20.140625 5.332031 21.332031 6.527344 21.332031 8 L 21.332031 13.332031 C 21.332031 14.804688 20.140625 16 18.667969 16 Z M 45.332031 16 C 43.859375 16 42.667969 14.804688 42.667969 13.332031 L 42.667969 8 C 42.667969 6.527344 43.859375 5.332031 45.332031 5.332031 C 46.804688 5.332031 48 6.527344 48 8 L 48 13.332031 C 48 14.804688 46.808594 16 45.335938 16 Z M 45.332031 16 "/>
<path style=" stroke:none;fill-rule:nonzero;fill:rgb(39.607843%,38.823529%,100%);fill-opacity:1;" d="M 50.667969 10.667969 L 48 10.667969 L 48 13.332031 C 48 14.804688 46.804688 16 45.332031 16 C 43.859375 16 42.667969 14.804688 42.667969 13.332031 L 42.667969 10.667969 L 21.332031 10.667969 L 21.332031 13.332031 C 21.332031 14.804688 20.140625 16 18.667969 16 C 17.195312 16 16 14.804688 16 13.332031 L 16 10.667969 L 13.332031 10.667969 C 8.914062 10.667969 5.332031 14.25 5.332031 18.667969 L 5.332031 24 L 58.667969 24 L 58.667969 18.667969 C 58.667969 14.25 55.085938 10.667969 50.667969 10.667969 Z M 50.667969 10.667969 "/>
<path style=" stroke:none;fill-rule:nonzero;fill:rgb(39.607843%,38.823529%,100%);fill-opacity:1;" d="M 21.332031 34.667969 C 21.332031 36.140625 20.140625 37.332031 18.667969 37.332031 C 17.195312 37.332031 16 36.140625 16 34.667969 C 16 33.195312 17.195312 32 18.667969 32 C 20.140625 32 21.332031 33.195312 21.332031 34.667969 Z M 21.332031 34.667969 "/>
<path style=" stroke:none;fill-rule:nonzero;fill:rgb(39.607843%,38.823529%,100%);fill-opacity:1;" d="M 21.332031 45.332031 C 21.332031 46.804688 20.140625 48 18.667969 48 C 17.195312 48 16 46.804688 16 45.332031 C 16 43.859375 17.195312 42.667969 18.667969 42.667969 C 20.140625 42.667969 21.332031 43.859375 21.332031 45.332031 Z M 21.332031 45.332031 "/>
<path style=" stroke:none;fill-rule:nonzero;fill:rgb(39.607843%,38.823529%,100%);fill-opacity:1;" d="M 34.667969 34.667969 C 34.667969 36.140625 33.472656 37.332031 32 37.332031 C 30.527344 37.332031 29.332031 36.140625 29.332031 34.667969 C 29.332031 33.195312 30.527344 32 32 32 C 33.472656 32 34.667969 33.195312 34.667969 34.667969 Z M 34.667969 34.667969 "/>
<path style=" stroke:none;fill-rule:nonzero;fill:rgb(39.607843%,38.823529%,100%);fill-opacity:1;" d="M 34.667969 45.332031 C 34.667969 46.804688 33.472656 48 32 48 C 30.527344 48 29.332031 46.804688 29.332031 45.332031 C 29.332031 43.859375 30.527344 42.667969 32 42.667969 C 33.472656 42.667969 34.667969 43.859375 34.667969 45.332031 Z M 34.667969 45.332031 "/>
<path style=" stroke:none;fill-rule:nonzero;fill:rgb(39.607843%,38.823529%,100%);fill-opacity:1;" d="M 48 34.667969 C 48 36.140625 46.804688 37.332031 45.332031 37.332031 C 43.859375 37.332031 42.667969 36.140625 42.667969 34.667969 C 42.667969 33.195312 43.859375 32 45.332031 32 C 46.804688 32 48 33.195312 48 34.667969 Z M 48 34.667969 "/>
<path style=" stroke:none;fill-rule:nonzero;fill:rgb(39.607843%,38.823529%,100%);fill-opacity:1;" d="M 48 45.332031 C 48 46.804688 46.804688 48 45.332031 48 C 43.859375 48 42.667969 46.804688 42.667969 45.332031 C 42.667969 43.859375 43.859375 42.667969 45.332031 42.667969 C 46.804688 42.667969 48 43.859375 48 45.332031 Z M 48 45.332031 "/>
<path style=" stroke:none;fill-rule:nonzero;fill:rgb(69.803922%,69.411765%,100%);fill-opacity:1;" d="M 5.332031 24 L 5.332031 50.667969 C 5.332031 55.085938 8.914062 58.667969 13.332031 58.667969 L 50.667969 58.667969 C 55.085938 58.667969 58.667969 55.085938 58.667969 50.667969 L 58.667969 24 Z M 18.667969 48 C 17.195312 48 16 46.804688 16 45.332031 C 16 43.859375 17.195312 42.667969 18.667969 42.667969 C 20.140625 42.667969 21.332031 43.859375 21.332031 45.332031 C 21.332031 46.804688 20.140625 48 18.667969 48 Z M 18.667969 37.332031 C 17.195312 37.332031 16 36.140625 16 34.667969 C 16 33.195312 17.195312 32 18.667969 32 C 20.140625 32 21.332031 33.195312 21.332031 34.667969 C 21.332031 36.140625 20.140625 37.332031 18.667969 37.332031 Z M 32 48 C 30.527344 48 29.332031 46.804688 29.332031 45.332031 C 29.332031 43.859375 30.527344 42.667969 32 42.667969 C 33.472656 42.667969 34.667969 43.859375 34.667969 45.332031 C 34.667969 46.804688 33.472656 48 32 48 Z M 32 37.332031 C 30.527344 37.332031 29.332031 36.140625 29.332031 34.667969 C 29.332031 33.195312 30.527344 32 32 32 C 33.472656 32 34.667969 33.195312 34.667969 34.667969 C 34.667969 36.140625 33.472656 37.332031 32 37.332031 Z M 45.332031 48 C 43.859375 48 42.667969 46.804688 42.667969 45.332031 C 42.667969 43.859375 43.859375 42.667969 45.332031 42.667969 C 46.804688 42.667969 48 43.859375 48 45.332031 C 48 46.804688 46.804688 48 45.332031 48 Z M 45.332031 37.332031 C 43.859375 37.332031 42.667969 36.140625 42.667969 34.667969 C 42.667969 33.195312 43.859375 32 45.332031 32 C 46.804688 32 48 33.195312 48 34.667969 C 48 36.140625 46.804688 37.332031 45.332031 37.332031 Z M 45.332031 37.332031 "/>
</g>
</svg>
